<mxfile host="Electron" modified="2024-03-26T20:47:42.462Z" agent="Mozilla/5.0 (Macintosh; Intel Mac OS X 10_15_7) AppleWebKit/537.36 (KHTML, like Gecko) draw.io/24.1.0 Chrome/120.0.6099.109 Electron/28.1.0 Safari/537.36" etag="GoDzSFeoNT2zogIRb8i-" version="24.1.0" type="device">
  <diagram name="Page-1" id="r5_0NIIIuvFSA6UUd4by">
    <mxGraphModel dx="2116" dy="807" grid="1" gridSize="10" guides="1" tooltips="1" connect="1" arrows="1" fold="1" page="1" pageScale="1" pageWidth="850" pageHeight="1100" math="0" shadow="0">
      <root>
        <mxCell id="0" />
        <mxCell id="1" parent="0" />
        <mxCell id="LUuG6YDbE1bxaYEukyaB-1" value="Memory" style="rounded=0;whiteSpace=wrap;html=1;sketch=1;hachureGap=4;jiggle=2;curveFitting=1;" parent="1" vertex="1">
          <mxGeometry x="-308.76" y="390" width="113.17" height="76.4" as="geometry" />
        </mxCell>
        <mxCell id="LUuG6YDbE1bxaYEukyaB-2" value="CPU" style="rounded=1;whiteSpace=wrap;html=1;sketch=1;hachureGap=4;jiggle=2;curveFitting=1;" parent="1" vertex="1">
          <mxGeometry x="-290" y="585.2" width="75.66" height="76.8" as="geometry" />
        </mxCell>
        <mxCell id="LUuG6YDbE1bxaYEukyaB-3" value="I/O" style="rounded=1;whiteSpace=wrap;html=1;sketch=1;hachureGap=4;jiggle=2;curveFitting=1;" parent="1" vertex="1">
          <mxGeometry x="-717.5" y="494.3" width="250" height="262.4" as="geometry" />
        </mxCell>
        <mxCell id="LUuG6YDbE1bxaYEukyaB-4" value="Long&lt;br&gt;term&lt;br&gt;memory" style="shape=cylinder3;whiteSpace=wrap;html=1;boundedLbl=1;backgroundOutline=1;size=15;sketch=1;hachureGap=4;jiggle=2;curveFitting=1;" parent="1" vertex="1">
          <mxGeometry x="-144.56" y="560" width="74.56" height="130" as="geometry" />
        </mxCell>
        <mxCell id="LUuG6YDbE1bxaYEukyaB-5" value="" style="shape=flexArrow;endArrow=classic;startArrow=classic;html=1;rounded=0;sketch=1;hachureGap=4;jiggle=2;curveFitting=1;entryX=0;entryY=0.5;entryDx=0;entryDy=0;entryPerimeter=0;exitX=1;exitY=0.5;exitDx=0;exitDy=0;" parent="1" source="LUuG6YDbE1bxaYEukyaB-2" target="LUuG6YDbE1bxaYEukyaB-4" edge="1">
          <mxGeometry width="100" height="100" relative="1" as="geometry">
            <mxPoint x="-521.2266666666667" y="818.8" as="sourcePoint" />
            <mxPoint x="-345.6711111111111" y="574.8" as="targetPoint" />
          </mxGeometry>
        </mxCell>
        <mxCell id="LUuG6YDbE1bxaYEukyaB-6" value="" style="shape=flexArrow;endArrow=classic;startArrow=classic;html=1;rounded=0;sketch=1;hachureGap=4;jiggle=2;curveFitting=1;entryX=0.5;entryY=1;entryDx=0;entryDy=0;exitX=0.5;exitY=0;exitDx=0;exitDy=0;" parent="1" source="LUuG6YDbE1bxaYEukyaB-2" target="LUuG6YDbE1bxaYEukyaB-1" edge="1">
          <mxGeometry width="100" height="100" relative="1" as="geometry">
            <mxPoint x="-521.2266666666667" y="818.8" as="sourcePoint" />
            <mxPoint x="-345.6711111111111" y="574.8" as="targetPoint" />
          </mxGeometry>
        </mxCell>
        <mxCell id="LUuG6YDbE1bxaYEukyaB-7" value="" style="shape=flexArrow;endArrow=classic;startArrow=classic;html=1;rounded=0;sketch=1;hachureGap=4;jiggle=2;curveFitting=1;entryX=1;entryY=0.5;entryDx=0;entryDy=0;exitX=0;exitY=0.5;exitDx=0;exitDy=0;" parent="1" source="LUuG6YDbE1bxaYEukyaB-2" target="LUuG6YDbE1bxaYEukyaB-3" edge="1">
          <mxGeometry width="100" height="100" relative="1" as="geometry">
            <mxPoint x="-534.6666666666667" y="818.8" as="sourcePoint" />
            <mxPoint x="-359.1111111111111" y="574.8" as="targetPoint" />
          </mxGeometry>
        </mxCell>
        <mxCell id="nnvsV9S_SFHZuwEbK5Mx-3" value="Von Neumann Machine" style="rounded=1;whiteSpace=wrap;html=1;sketch=1;hachureGap=4;jiggle=2;curveFitting=1;" parent="1" vertex="1">
          <mxGeometry x="-573.11" y="60" width="270" height="40" as="geometry" />
        </mxCell>
        <mxCell id="As5jC_xQB609jodl5ntm-2" value="Vision" style="ellipse;whiteSpace=wrap;html=1;sketch=1;hachureGap=4;jiggle=2;curveFitting=1;fontFamily=Architects Daughter;fontSource=https%3A%2F%2Ffonts.googleapis.com%2Fcss%3Ffamily%3DArchitects%2BDaughter;" parent="1" vertex="1">
          <mxGeometry x="-717.5" y="612.5" width="80" height="50" as="geometry" />
        </mxCell>
        <mxCell id="As5jC_xQB609jodl5ntm-3" value="Hearing" style="ellipse;whiteSpace=wrap;html=1;sketch=1;hachureGap=4;jiggle=2;curveFitting=1;fontFamily=Architects Daughter;fontSource=https%3A%2F%2Ffonts.googleapis.com%2Fcss%3Ffamily%3DArchitects%2BDaughter;" parent="1" vertex="1">
          <mxGeometry x="-710" y="510.5" width="80" height="50" as="geometry" />
        </mxCell>
        <mxCell id="As5jC_xQB609jodl5ntm-4" value="Smell" style="ellipse;whiteSpace=wrap;html=1;sketch=1;hachureGap=4;jiggle=2;curveFitting=1;fontFamily=Architects Daughter;fontSource=https%3A%2F%2Ffonts.googleapis.com%2Fcss%3Ffamily%3DArchitects%2BDaughter;" parent="1" vertex="1">
          <mxGeometry x="-547.5" y="650.5" width="80" height="50" as="geometry" />
        </mxCell>
        <mxCell id="As5jC_xQB609jodl5ntm-5" value="Touch" style="ellipse;whiteSpace=wrap;html=1;sketch=1;hachureGap=4;jiggle=2;curveFitting=1;fontFamily=Architects Daughter;fontSource=https%3A%2F%2Ffonts.googleapis.com%2Fcss%3Ffamily%3DArchitects%2BDaughter;" parent="1" vertex="1">
          <mxGeometry x="-637.5" y="700.5" width="75" height="50" as="geometry" />
        </mxCell>
        <mxCell id="As5jC_xQB609jodl5ntm-6" value="Taste" style="ellipse;whiteSpace=wrap;html=1;sketch=1;hachureGap=4;jiggle=2;curveFitting=1;fontFamily=Architects Daughter;fontSource=https%3A%2F%2Ffonts.googleapis.com%2Fcss%3Ffamily%3DArchitects%2BDaughter;" parent="1" vertex="1">
          <mxGeometry x="-547.5" y="525.5" width="80" height="50" as="geometry" />
        </mxCell>
        <mxCell id="As5jC_xQB609jodl5ntm-7" value="Rt Arm" style="rhombus;whiteSpace=wrap;html=1;sketch=1;hachureGap=4;jiggle=2;curveFitting=1;fontFamily=Architects Daughter;fontSource=https%3A%2F%2Ffonts.googleapis.com%2Fcss%3Ffamily%3DArchitects%2BDaughter;" parent="1" vertex="1">
          <mxGeometry x="-677.5" y="414.3" width="80" height="80" as="geometry" />
        </mxCell>
        <mxCell id="As5jC_xQB609jodl5ntm-8" value="Torso" style="rhombus;whiteSpace=wrap;html=1;sketch=1;hachureGap=4;jiggle=2;curveFitting=1;fontFamily=Architects Daughter;fontSource=https%3A%2F%2Ffonts.googleapis.com%2Fcss%3Ffamily%3DArchitects%2BDaughter;" parent="1" vertex="1">
          <mxGeometry x="-587.5" y="756.7" width="80" height="80" as="geometry" />
        </mxCell>
        <mxCell id="As5jC_xQB609jodl5ntm-9" value="Rt Leg" style="rhombus;whiteSpace=wrap;html=1;sketch=1;hachureGap=4;jiggle=2;curveFitting=1;fontFamily=Architects Daughter;fontSource=https%3A%2F%2Ffonts.googleapis.com%2Fcss%3Ffamily%3DArchitects%2BDaughter;" parent="1" vertex="1">
          <mxGeometry x="-697.5" y="756.7" width="80" height="80" as="geometry" />
        </mxCell>
        <mxCell id="As5jC_xQB609jodl5ntm-10" value="Head" style="rhombus;whiteSpace=wrap;html=1;sketch=1;hachureGap=4;jiggle=2;curveFitting=1;fontFamily=Architects Daughter;fontSource=https%3A%2F%2Ffonts.googleapis.com%2Fcss%3Ffamily%3DArchitects%2BDaughter;" parent="1" vertex="1">
          <mxGeometry x="-467.5" y="670.5" width="80" height="80" as="geometry" />
        </mxCell>
        <mxCell id="As5jC_xQB609jodl5ntm-11" value="Neck" style="rhombus;whiteSpace=wrap;html=1;sketch=1;hachureGap=4;jiggle=2;curveFitting=1;fontFamily=Architects Daughter;fontSource=https%3A%2F%2Ffonts.googleapis.com%2Fcss%3Ffamily%3DArchitects%2BDaughter;" parent="1" vertex="1">
          <mxGeometry x="-562.5" y="410.5" width="80" height="80" as="geometry" />
        </mxCell>
        <mxCell id="As5jC_xQB609jodl5ntm-12" value="Lt Arm" style="rhombus;whiteSpace=wrap;html=1;sketch=1;hachureGap=4;jiggle=2;curveFitting=1;fontFamily=Architects Daughter;fontSource=https%3A%2F%2Ffonts.googleapis.com%2Fcss%3Ffamily%3DArchitects%2BDaughter;" parent="1" vertex="1">
          <mxGeometry x="-467.5" y="466.9" width="80" height="80" as="geometry" />
        </mxCell>
        <mxCell id="As5jC_xQB609jodl5ntm-13" value="Lt Leg" style="rhombus;whiteSpace=wrap;html=1;sketch=1;hachureGap=4;jiggle=2;curveFitting=1;fontFamily=Architects Daughter;fontSource=https%3A%2F%2Ffonts.googleapis.com%2Fcss%3Ffamily%3DArchitects%2BDaughter;" parent="1" vertex="1">
          <mxGeometry x="-800" y="670.5" width="80" height="80" as="geometry" />
        </mxCell>
        <mxCell id="As5jC_xQB609jodl5ntm-14" value="Organs" style="rhombus;whiteSpace=wrap;html=1;sketch=1;hachureGap=4;jiggle=2;curveFitting=1;fontFamily=Architects Daughter;fontSource=https%3A%2F%2Ffonts.googleapis.com%2Fcss%3Ffamily%3DArchitects%2BDaughter;" parent="1" vertex="1">
          <mxGeometry x="-797.5" y="546.9" width="80" height="80" as="geometry" />
        </mxCell>
      </root>
    </mxGraphModel>
  </diagram>
</mxfile>
